<?xml version="1.0" encoding="UTF-8"?><svg id="Layer_2" xmlns="http://www.w3.org/2000/svg" viewBox="0 0 99.52 114.68"><defs><style>.cls-1{fill:#fff;}</style></defs><g id="Layer_1-2"><path class="cls-1" d="M40.3,54.45C16.08,67.06,0,89.32,0,114.68H35.3c9.31-25.79,34.14-44.84,64.21-48.01-3.28,.31-6.55,.62-9.94,.62-17.27,.11-34.26-4.31-49.28-12.84Z"/><path class="cls-1" d="M99.45,44.33C72.14,40.39,49.62,23.15,39.78,0H3.37c1.62,22.46,15.84,42.25,36.93,54.45,14.29-7.32,30.12-11.09,46.17-10.99,4.34,.02,8.67,.32,12.98,.88Z"/><path class="cls-1" d="M86.46,43.45c-16.05-.09-31.89,3.68-46.17,10.99,15.02,8.53,32.01,12.96,49.28,12.85,3.38,0,6.66-.31,9.94-.62v-22.35h-.07c-4.3-.56-8.64-.86-12.98-.88Z"/><path class="cls-1" d="M86.46,43.45c-16.05-.09-31.89,3.68-46.17,10.99,15.02,8.53,32.01,12.96,49.28,12.85,3.38,0,6.66-.31,9.94-.62v-22.35h-.07c-4.3-.56-8.64-.86-12.98-.88Z"/></g></svg>