<svg xmlns="http://www.w3.org/2000/svg" class="icon__globe" width="16" height="16">
        <symbol id="a" viewBox="0 0 16 16">
            <path d="M11 3a8 8 0 1 0 8 8 8.009 8.009 0 0 0-8-8Zm6.345 7.2h-2.212A11.736 11.736 0 0 0 13.7 5.206a6.411 6.411 0 0 1 3.645 4.994Zm-5.921-5.579a10.391 10.391 0 0 1 2.1 5.579h-4.9a10.207 10.207 0 0 1 1.961-5.579c.138-.008.275-.021.415-.021s.283.013.424.022Zm-3.074.56A12.116 12.116 0 0 0 7.024 10.2H4.655A6.411 6.411 0 0 1 8.35 5.182ZM4.655 11.8h2.38a12.539 12.539 0 0 0 1.245 4.984A6.408 6.408 0 0 1 4.655 11.8Zm5.905 5.579A9.575 9.575 0 0 1 8.633 11.8h4.891a9.759 9.759 0 0 1-2.083 5.578c-.146.01-.291.022-.441.022s-.293-.013-.44-.022Zm3.209-.618a12.279 12.279 0 0 0 1.354-4.961h2.222a6.4 6.4 0 0 1-3.575 4.961Z" transform="translate(-3 -3)"/>
        </symbol>
</svg>
