<?xml version="1.0" encoding="UTF-8"?><svg id="Layer_2" xmlns="http://www.w3.org/2000/svg" viewBox="0 0 476 114.69"><defs><style>.cls-1{fill:#1c3d6d;}.cls-2{fill:#5787b4;}</style></defs><g id="Layer_1-2"><path class="cls-1" d="M22.35,64.46v29.6h20.69c5.12,.16,10.24-.07,15.33-.68,3.13-.5,5.99-2.06,8.11-4.41,2.19-2.63,3.31-5.98,3.13-9.4,.09-3-.75-5.96-2.42-8.46-1.72-2.4-4.17-4.17-6.98-5.06-3.05-1.06-9.65-1.59-19.82-1.59H22.35Zm0-44.02v25.59h14.65c8.71,0,14.12-.13,16.23-.38,3.37-.25,6.56-1.65,9.02-3.97,2.24-2.31,3.42-5.43,3.28-8.64,.13-3.04-.88-6.01-2.83-8.34-2.22-2.3-5.23-3.69-8.42-3.89-2.22-.25-8.59-.38-19.1-.38h-12.83ZM0,2.02H44.24c6.55-.14,13.1,.23,19.59,1.09,4.14,.66,8.08,2.22,11.55,4.57,3.48,2.41,6.39,5.57,8.49,9.25,2.29,3.93,3.46,8.4,3.4,12.95,.02,10.37-6.08,19.79-15.55,24.01,6.14,1.57,11.6,5.09,15.55,10.04,3.64,4.79,5.56,10.67,5.44,16.68-.02,5.1-1.22,10.13-3.51,14.68-2.17,4.56-5.47,8.48-9.59,11.4-4.47,2.99-9.63,4.79-14.99,5.24-3.72,.4-12.71,.65-26.95,.75H0V2.02Z"/><path class="cls-1" d="M159.98,72.01v-18.65h48.17v44.08c-5.93,5.28-12.85,9.35-20.35,11.96-8.6,3.39-17.75,5.15-26.99,5.17-10.55,.25-20.99-2.26-30.28-7.29-8.5-4.74-15.28-12.03-19.4-20.84-4.37-9.21-6.59-19.28-6.49-29.47-.2-10.69,2.29-21.26,7.25-30.73,4.77-8.9,12.18-16.1,21.22-20.61C141.37,1.72,150.46-.17,159.61,.13c13.74,0,24.47,2.88,32.2,8.64,7.77,5.83,13.09,14.35,14.91,23.9l-22.2,4.15c-1.38-5.17-4.49-9.71-8.81-12.87-4.72-3.27-10.38-4.93-16.12-4.72-8.74-.42-17.23,2.97-23.29,9.28-5.76,6.19-8.64,15.37-8.64,27.56,0,13.14,2.92,22.99,8.76,29.56,5.79,6.55,14.21,10.16,22.95,9.85,4.82-.03,9.6-.96,14.08-2.75,4.34-1.63,8.42-3.89,12.12-6.68v-14.04h-25.58Z"/><rect class="cls-1" x="228.08" y="2.02" width="22.35" height="110.68"/><path class="cls-1" d="M266.06,76.69l21.74-2.11c1.31,7.3,3.96,12.66,7.97,16.08,4.59,3.62,10.35,5.44,16.18,5.13,7.2,0,12.62-1.52,16.27-4.57,3.38-2.52,5.41-6.46,5.47-10.68,.06-2.43-.75-4.81-2.3-6.68-2.22-2.27-4.99-3.92-8.04-4.8-2.62-.91-8.58-2.52-17.89-4.83-11.98-2.97-20.39-6.62-25.23-10.95-6.54-5.54-10.28-13.7-10.19-22.27,0-5.63,1.67-11.14,4.79-15.82,3.37-5.05,8.19-8.96,13.82-11.21,6.93-2.74,14.34-4.05,21.78-3.85,13.89,0,24.35,3.04,31.37,9.13,7.05,6.14,11.08,15.04,11.06,24.39l-22.35,.98c-.45-4.71-2.64-9.09-6.15-12.27-3.15-2.49-7.87-3.74-14.16-3.74-5.38-.31-10.72,1.09-15.25,4-2.28,1.54-3.61,4.13-3.55,6.87,0,2.64,1.24,5.12,3.33,6.72,2.82,2.37,9.66,4.83,20.54,7.4,8.33,1.7,16.42,4.37,24.12,7.97,5.02,2.57,9.25,6.46,12.23,11.25,6.19,11.09,5.86,24.67-.87,35.45-3.57,5.58-8.8,9.89-14.95,12.34-7.69,2.91-15.87,4.29-24.09,4.05-13.99,0-24.74-3.23-32.24-9.7-7.5-6.47-11.98-15.89-13.44-28.27"/><path class="cls-1" d="M416.78,54.45c-24.22,12.61-40.3,34.87-40.3,60.23h35.3c9.31-25.79,34.14-44.84,64.21-48.01-3.28,.31-6.55,.62-9.94,.62-17.27,.11-34.26-4.31-49.28-12.84Z"/><path class="cls-2" d="M475.93,44.33c-27.31-3.95-49.83-21.18-59.66-44.33h-36.41c1.62,22.46,15.84,42.25,36.93,54.45,14.29-7.32,30.12-11.09,46.17-10.99,4.34,.02,8.67,.32,12.98,.88Z"/><path class="cls-1" d="M462.94,43.45c-16.05-.09-31.89,3.68-46.17,10.99,15.02,8.53,32.01,12.96,49.28,12.85,3.38,0,6.66-.31,9.94-.62v-22.35h-.07c-4.3-.56-8.64-.86-12.98-.88Z"/><path class="cls-1" d="M462.94,43.45c-16.05-.09-31.89,3.68-46.17,10.99,15.02,8.53,32.01,12.96,49.28,12.85,3.38,0,6.66-.31,9.94-.62v-22.35h-.07c-4.3-.56-8.64-.86-12.98-.88Z"/></g></svg>