<svg id="Layer_2" xmlns="http://www.w3.org/2000/svg" viewBox="0 0 476 114.69">
    <defs>
        <style>
            .cls-1{fill:#1c3d6d}
        </style>
    </defs>
    <g id="Layer_1-2">
        <path class="cls-1" d="M22.35 64.46v29.6h20.69c5.12.16 10.24-.07 15.33-.68 3.13-.5 5.99-2.06 8.11-4.41 2.19-2.63 3.31-5.98 3.13-9.4.09-3-.75-5.96-2.42-8.46-1.72-2.4-4.17-4.17-6.98-5.06-3.05-1.06-9.65-1.59-19.82-1.59H22.35Zm0-44.02v25.59H37c8.71 0 14.12-.13 16.23-.38 3.37-.25 6.56-1.65 9.02-3.97 2.24-2.31 3.42-5.43 3.28-8.64.13-3.04-.88-6.01-2.83-8.34a12.83 12.83 0 0 0-8.42-3.89c-2.22-.25-8.59-.38-19.1-.38H22.35ZM0 2.02h44.24c6.55-.14 13.1.23 19.59 1.09 4.14.66 8.08 2.22 11.55 4.57a28.37 28.37 0 0 1 8.49 9.25c2.29 3.93 3.46 8.4 3.4 12.95a26.24 26.24 0 0 1-15.55 24.01 29.11 29.11 0 0 1 15.55 10.04 26.698 26.698 0 0 1 5.44 16.68c-.02 5.1-1.22 10.13-3.51 14.68a29.511 29.511 0 0 1-9.59 11.4 31.735 31.735 0 0 1-14.99 5.24c-3.72.4-12.71.65-26.95.75H0V2.02ZM159.98 72.01V53.36h48.17v44.08a60.541 60.541 0 0 1-20.35 11.96 74.029 74.029 0 0 1-26.99 5.17 60.584 60.584 0 0 1-30.28-7.29 46.316 46.316 0 0 1-19.4-20.84 67.187 67.187 0 0 1-6.49-29.47 63.665 63.665 0 0 1 7.25-30.73c4.77-8.9 12.18-16.1 21.22-20.61a57.55 57.55 0 0 1 26.5-5.5c13.74 0 24.47 2.88 32.2 8.64a39.01 39.01 0 0 1 14.91 23.9l-22.2 4.15a23.435 23.435 0 0 0-8.81-12.87 26.613 26.613 0 0 0-16.12-4.72 30.28 30.28 0 0 0-23.29 9.28c-5.76 6.19-8.64 15.37-8.64 27.56 0 13.14 2.92 22.99 8.76 29.56a29.242 29.242 0 0 0 22.95 9.85c4.82-.03 9.6-.96 14.08-2.75 4.34-1.63 8.42-3.89 12.12-6.68V72.01h-25.58ZM228.08 2.02h22.35V112.7h-22.35zM266.06 76.69l21.74-2.11c1.31 7.3 3.96 12.66 7.97 16.08a24.077 24.077 0 0 0 16.18 5.13c7.2 0 12.62-1.52 16.27-4.57 3.38-2.52 5.41-6.46 5.47-10.68.06-2.43-.75-4.81-2.3-6.68a18.357 18.357 0 0 0-8.04-4.8c-2.62-.91-8.58-2.52-17.89-4.83-11.98-2.97-20.39-6.62-25.23-10.95a28.794 28.794 0 0 1-10.19-22.27c0-5.63 1.67-11.14 4.79-15.82 3.37-5.05 8.19-8.96 13.82-11.21A55.207 55.207 0 0 1 310.43.13c13.89 0 24.35 3.04 31.37 9.13a32.245 32.245 0 0 1 11.06 24.39l-22.35.98c-.45-4.71-2.64-9.09-6.15-12.27-3.15-2.49-7.87-3.74-14.16-3.74a25.503 25.503 0 0 0-15.25 4 8.073 8.073 0 0 0-3.55 6.87 8.47 8.47 0 0 0 3.33 6.72c2.82 2.37 9.66 4.83 20.54 7.4 8.33 1.7 16.42 4.37 24.12 7.97 5.02 2.57 9.25 6.46 12.23 11.25a34.856 34.856 0 0 1-.87 35.45c-3.57 5.58-8.8 9.89-14.95 12.34a62.87 62.87 0 0 1-24.09 4.05c-13.99 0-24.74-3.23-32.24-9.7-7.5-6.47-11.98-15.89-13.44-28.27M416.78 54.45c-24.22 12.61-40.3 34.87-40.3 60.23h35.3c9.31-25.79 34.14-44.84 64.21-48.01-3.28.31-6.55.62-9.94.62a98.498 98.498 0 0 1-49.28-12.84Z"/>
        <path d="M475.93 44.33C448.62 40.38 426.1 23.15 416.27 0h-36.41c1.62 22.46 15.84 42.25 36.93 54.45a99.886 99.886 0 0 1 46.17-10.99c4.34.02 8.67.32 12.98.88Z" style="fill:#5787b4"/>
        <path class="cls-1" d="M462.94 43.45c-16.05-.09-31.89 3.68-46.17 10.99a98.508 98.508 0 0 0 49.28 12.85c3.38 0 6.66-.31 9.94-.62V44.32h-.07c-4.3-.56-8.64-.86-12.98-.88Z"/>
        <path class="cls-1" d="M462.94 43.45c-16.05-.09-31.89 3.68-46.17 10.99a98.508 98.508 0 0 0 49.28 12.85c3.38 0 6.66-.31 9.94-.62V44.32h-.07c-4.3-.56-8.64-.86-12.98-.88Z"/>
    </g>
</svg>
